<svg width="1440" height="1024" viewBox="0 0 1440 1024" fill="none" xmlns="http://www.w3.org/2000/svg">
<g clip-path="url(#clip0)">
<rect width="1440" height="1024" fill="url(#paint0_linear)"/>
<path d="M49.034 110.976C38.0264 111.362 13.5094 105.958 0 95.5363V-11H1440V34.9341C1430.66 39.3088 1372.7 71.9554 1321.92 83.5703C1192.68 113.131 1074.75 50.3742 985.684 23.3541C896.623 -3.66593 811.563 36.4782 724.503 83.5703C654.855 121.244 585.407 115.994 525.865 82.7982C466.324 49.6021 411.545 17.9367 343.238 10.2301C216.65 -4.05198 106.074 112.906 49.034 110.976Z" fill="white" stroke="white"/>
<path d="M1390.99 939.123C1402.03 938.829 1426.6 942.557 1440.16 949.82L1440.32 1024.36L-2.81406 1027.5L-2.88401 995.362C6.46942 992.281 64.5075 969.312 115.381 961.075C244.856 940.11 363.141 983.762 452.438 1002.47C541.735 1021.18 626.918 992.911 714.097 959.772C783.839 933.261 853.447 936.782 913.168 959.879C972.89 982.976 1027.84 1005.01 1096.3 1010.25C1223.19 1019.97 1333.83 937.898 1390.99 939.123Z" fill="white" stroke="white"/>
</g>
<defs>
<linearGradient id="paint0_linear" x1="1388" y1="512" x2="-24.5001" y2="512" gradientUnits="userSpaceOnUse">
<stop stop-color="#2B077E"/>
<stop offset="0.896799" stop-color="#9B51E0"/>
</linearGradient>
<clipPath id="clip0">
<rect width="1440" height="1024" fill="white"/>
</clipPath>
</defs>
</svg>
