<svg width="1280" height="694" viewBox="0 0 1280 694" fill="none" xmlns="http://www.w3.org/2000/svg">
<path d="M215 0C139.956 0 97.5745 64 -3.00005 64L-3 149H1280V27C1280 27 1246 30.5428 1204 49C1158.72 68.9016 1103.65 86.8201 1057.89 75.2205C1025.92 69.2585 986.719 57.3346 932.564 38.3308C824.252 0.323097 766.229 10.384 766.229 10.384C668.964 13.0935 609.951 88.076 529.492 88.076C449.032 88.076 370.893 50.0774 316.738 27.2542C279.602 11.604 255.23 0 215 0Z" fill="#9D5FE5" fill-opacity="0.36"/>
<path fill-rule="evenodd" clip-rule="evenodd" d="M0 57.1669H105.495C154.549 57.1669 191.052 41.2859 224.887 26.5653C254.113 13.8497 281.35 2 312.967 2C349.538 2 389.626 11.5749 423.385 27.1777C428.812 29.6861 434.504 32.3785 440.435 35.1837C488.303 57.8241 551.712 87.8152 616.791 87.8152C652.013 87.8152 682.514 70.4484 714.643 52.1545C749.233 32.459 785.71 11.6888 832 10.3586C892.02 8.63386 983.209 38.2207 983.209 38.2207C983.209 38.2207 1068.07 69.0547 1097.14 74.9986C1177.32 97.2883 1280 43.7931 1280 43.7931V104V148.555V694H0V148.555V104V57.1669Z" fill="url(#paint0_linear)"/>
<defs>
<linearGradient id="paint0_linear" x1="1280" y1="694" x2="0.000100327" y2="212" gradientUnits="userSpaceOnUse">
<stop stop-color="#9B51E0"/>
<stop offset="0.240375" stop-color="#7135BB"/>
<stop offset="0.840353" stop-color="#2B077E"/>
<stop offset="0.9999" stop-color="#2B077E"/>
</linearGradient>
</defs>
</svg>
