<svg width="1280" height="768" viewBox="0 0 1280 768" fill="none" xmlns="http://www.w3.org/2000/svg">
<path d="M105.495 725.583H0V655.316H1280V735.866C1280 735.866 1177.32 694.734 1097.14 711.872C1068.07 716.442 1032.44 725.583 983.209 740.15C884.747 769.285 874.198 761.573 832 761.573C751.824 750.005 689.934 702.018 616.791 702.018C543.648 702.018 472.615 731.146 423.385 748.641C389.626 760.638 349.538 768 312.967 768C244.747 768 196.923 725.583 105.495 725.583Z" fill="#F3F4F8"/>
<path d="M105.495 55.1669H0V146.555H1280V41.7931C1280 41.7931 1177.32 95.2883 1097.14 72.9986C1068.07 67.0547 1032.44 55.1669 983.209 36.2207C884.747 -1.67179 874.198 8.35862 832 8.35862C751.824 23.4041 689.934 85.8152 616.791 85.8152C543.648 85.8152 472.615 47.9317 423.385 25.1777C389.626 9.57491 349.538 0 312.967 0C244.747 0 196.923 55.1669 105.495 55.1669Z" fill="#F3F4F8"/>
<rect y="93.6166" width="1280" height="602.128" fill="#F3F4F8"/>
</svg>
