<?xml version="1.0" encoding="UTF-8"?>
<!DOCTYPE svg PUBLIC "-//W3C//DTD SVG 1.1//EN" "http://www.w3.org/Graphics/SVG/1.1/DTD/svg11.dtd">
<!-- Creator: CorelDRAW 2018 (64 Bit Versão de avaliação) -->
<svg xmlns="http://www.w3.org/2000/svg" xml:space="preserve" width="107.156mm" height="84.6666mm" version="1.1" style="shape-rendering:geometricPrecision; text-rendering:geometricPrecision; image-rendering:optimizeQuality; fill-rule:evenodd; clip-rule:evenodd"
viewBox="0 0 10715.62 8466.66"
 xmlns:xlink="http://www.w3.org/1999/xlink"
 data-name="Layer 1">
 <defs>
  <style type="text/css">
   <![CDATA[
    .fil0 {fill:#FEFEFE}
    .fil5 {fill:#2F2E41}
    .fil2 {fill:#3F3D56}
    .fil4 {fill:#6C63FF}
    .fil1 {fill:#F2F2F2}
    .fil6 {fill:#FBBEBE}
    .fil3 {fill:black;fill-opacity:0.101961}
   ]]>
  </style>
 </defs>
 <g id="Camada_x0020_1">
  <metadata id="CorelCorpID_0Corel-Layer"/>
  <path class="fil0" d="M3637.81 2262.18c1442.55,-1158.47 4539.54,-2169.58 7071.2,-2262.18l0 8466.67 -10702.4 0c599.51,-2242.29 1852.09,-4775.74 3631.2,-6204.49z"/>
  <g id="_2332053857232">
   <path class="fil1" d="M5575.63 6853.23c-1735.11,-132.04 -3804.31,-1476.47 -3698.96,-2860.78 105.34,-1384.31 2109.38,-2672.98 3844.49,-2540.94 1735.11,132.04 2733.9,2719.08 2628.55,4103.39 -105.35,1384.3 -1038.98,1430.37 -2774.08,1298.33z"/>
   <ellipse class="fil2" cx="5721.14" cy="6853.67" rx="3621.98" ry="221.9"/>
   <path class="fil3" d="M8806.27 6850.09c0,-81.04 -1381.26,-146.74 -3085.13,-146.74 -1703.86,0 -3085.12,65.7 -3085.12,146.74 0,81.04 1381.26,146.74 3085.12,146.74 1703.87,0 3085.13,-65.7 3085.13,-146.74z"/>
   <ellipse class="fil2" cx="3194.34" cy="7429.9" rx="1518.89" ry="132.42"/>
   <path class="fil3" d="M4488.11 7427.76c0,-48.36 -579.24,-87.57 -1293.77,-87.57 -714.52,0 -1293.76,39.21 -1293.76,87.57 0,48.37 579.24,87.57 1293.76,87.57 714.53,0 1293.77,-39.2 1293.77,-87.57z"/>
   <rect class="fil2" x="3079.81" y="2601.78" width="5382.87" height="4223.26"/>
   <path class="fil1" d="M5710.01 3178.93l-1327.95 0c0,0 -0.02,0 -0.03,0 -8.89,0 -16.11,-7.22 -16.11,-16.12 0,-8.89 7.22,-16.11 16.11,-16.11 0.01,0 0.03,0 0.04,0l1327.94 0c8.88,0.02 16.08,7.23 16.08,16.11 0,8.89 -7.2,16.1 -16.08,16.12l0 0z"/>
   <path class="fil1" d="M7163.66 3356.2l-2088.62 0c-8.89,0 -16.11,-7.21 -16.11,-16.11 0,-8.9 7.22,-16.12 16.12,-16.12l2088.61 0c8.9,0 16.12,7.22 16.12,16.12 0,8.9 -7.22,16.11 -16.12,16.11l0 0z"/>
   <path class="fil1" d="M5716.46 3533.48l-1327.95 0c-8.9,0 -16.11,-7.22 -16.11,-16.12 0,-8.89 7.21,-16.11 16.11,-16.11l1327.95 0c8.89,0 16.11,7.22 16.11,16.11 0,8.9 -7.22,16.12 -16.11,16.12l0 0z"/>
   <path class="fil1" d="M7163.66 3536.7l-1327.95 0c-8.89,0 -16.11,-7.22 -16.11,-16.11 0,-8.9 7.22,-16.12 16.11,-16.12l1327.95 0c8.9,0 16.12,7.22 16.12,16.12 0,8.89 -7.22,16.11 -16.12,16.11z"/>
   <path class="fil1" d="M5719.68 3710.75l-1327.95 0c-8.89,0 -16.11,-7.21 -16.11,-16.11 0,-8.9 7.22,-16.12 16.11,-16.12l1327.95 0c8.9,0 16.11,7.22 16.11,16.12 0,8.9 -7.21,16.11 -16.11,16.11l0 0z"/>
   <path class="fil1" d="M5722.9 3888.03l-1327.95 0c-8.89,0 -16.11,-7.22 -16.11,-16.12 0,-8.9 7.22,-16.11 16.12,-16.11l1327.94 0c8.9,0 16.12,7.21 16.12,16.11 0,8.9 -7.22,16.12 -16.12,16.12l0 0z"/>
   <path class="fil1" d="M6325.64 3182.15l-380.34 0c-8.9,0 -16.11,-7.22 -16.11,-16.11 0,-8.9 7.21,-16.12 16.11,-16.12l380.34 0c8.89,0 16.11,7.22 16.11,16.12 0,8.89 -7.22,16.11 -16.11,16.11z"/>
   <path class="fil1" d="M6325.64 3710.75l-380.34 0c-8.9,0 -16.11,-7.21 -16.11,-16.11 0,-8.9 7.21,-16.12 16.11,-16.12l380.34 0c8.89,0 16.11,7.22 16.11,16.12 0,8.9 -7.22,16.11 -16.11,16.11l0 0z"/>
   <path class="fil1" d="M6325.64 3884.8l-380.34 0c-0.01,0 -0.02,0 -0.03,0 -8.9,0 -16.12,-7.21 -16.12,-16.11 0,-8.9 7.22,-16.12 16.12,-16.12 0.01,0 0.02,0 0.03,0l380.34 0c0,0 0.02,0 0.03,0 8.9,0 16.12,7.22 16.12,16.12 0,8.9 -7.22,16.11 -16.12,16.11 -0.01,0 -0.03,0 -0.03,0z"/>
   <path class="fil1" d="M6963.82 3884.8l-380.33 0c-8.89,-0.01 -16.08,-7.22 -16.08,-16.11 0,-8.89 7.19,-16.1 16.08,-16.12l380.33 0c0.02,0 0.03,0 0.04,0 8.9,0 16.12,7.22 16.12,16.12 0,8.9 -7.22,16.11 -16.12,16.11 -0.01,0 -0.02,0 -0.03,0l-0.01 0z"/>
   <path class="fil1" d="M4759.17 3356.2l-380.33 0c-8.89,0 -16.11,-7.21 -16.11,-16.11 0,-8.9 7.22,-16.12 16.11,-16.12l380.33 0c8.91,0 16.12,7.22 16.12,16.12 0,8.9 -7.21,16.11 -16.11,16.11l-0.01 0z"/>
   <path class="fil1" d="M5711.62 5789.7l-1327.95 0c-8.89,0 -16.11,-7.22 -16.11,-16.12 0,-8.9 7.22,-16.12 16.12,-16.12l1327.94 0.01c8.9,-0.01 16.12,7.21 16.12,16.11 0,8.9 -7.22,16.12 -16.12,16.12l0 0z"/>
   <path class="fil1" d="M5705.17 6144.25l-1327.94 0c-8.9,0 -16.11,-7.22 -16.11,-16.12 0,-8.9 7.21,-16.12 16.11,-16.12l1327.94 0.01c8.9,-0.01 16.12,7.21 16.12,16.11 0,8.9 -7.22,16.12 -16.11,16.12l-0.01 0z"/>
   <path class="fil1" d="M5708.4 6321.53l-1327.95 0c0,-0.01 -0.02,-0.01 -0.03,-0.01 -8.9,0 -16.12,-7.22 -16.12,-16.12 0,-8.89 7.22,-16.11 16.12,-16.11 0.01,0 0.03,0 0.03,0l1327.95 0c0.01,0 0.02,0 0.03,0 8.9,0 16.12,7.22 16.12,16.11 0,8.9 -7.22,16.12 -16.12,16.12 -0.01,0 -0.02,0 -0.03,0l0 0.01z"/>
   <path class="fil1" d="M6275.68 6147.47l-380.34 0c-8.9,0 -16.12,-7.22 -16.12,-16.12 0,-8.89 7.22,-16.11 16.12,-16.11l380.34 0c8.89,0 16.11,7.22 16.11,16.11 0,8.9 -7.22,16.12 -16.11,16.12l0 0z"/>
   <path class="fil1" d="M6275.68 6321.53l-380.34 0c-8.9,-0.01 -16.12,-7.23 -16.12,-16.13 0,-8.89 7.22,-16.11 16.12,-16.11l380.34 0c8.89,0 16.11,7.22 16.11,16.11 0,8.9 -7.22,16.12 -16.11,16.12l0 0.01z"/>
   <path class="fil1" d="M6913.87 6147.47l-380.34 0c-8.9,0 -16.11,-7.22 -16.11,-16.12 0,-8.89 7.21,-16.11 16.11,-16.11l380.34 0c8.89,0 16.11,7.22 16.11,16.11 0,8.9 -7.22,16.12 -16.11,16.12l0 0z"/>
   <path class="fil1" d="M7165.27 5966.98l-2088.61 0c-8.9,-0.01 -16.11,-7.23 -16.11,-16.13 0,-8.89 7.21,-16.11 16.11,-16.11l2088.61 0c8.9,0 16.12,7.22 16.12,16.11 0,8.9 -7.22,16.12 -16.12,16.12l0 0.01z"/>
   <path class="fil1" d="M4760.79 5966.98l-380.34 0c-8.89,-0.01 -16.11,-7.23 -16.11,-16.13 0,-8.89 7.22,-16.11 16.11,-16.11l380.34 0c8.9,0 16.11,7.22 16.11,16.11 0,8.9 -7.21,16.12 -16.11,16.12l0 0.01z"/>
   <path class="fil1" d="M7165.27 6502.02l-2088.61 0c-0.01,0 -0.02,0 -0.03,0 -8.9,0 -16.12,-7.22 -16.12,-16.12 0,-8.89 7.22,-16.11 16.12,-16.11 0.01,0 0.02,0 0.03,0l2088.61 0c8.9,0 16.12,7.22 16.12,16.11 0,8.9 -7.22,16.12 -16.12,16.12l0 0z"/>
   <path class="fil1" d="M4760.79 6502.02l-380.34 0c0,0 -0.02,0 -0.03,0 -8.9,0 -16.12,-7.22 -16.12,-16.12 0,-8.89 7.22,-16.11 16.12,-16.11 0.01,0 0.03,0 0.03,0l380.34 0c0.01,0 0.02,0 0.03,0 8.9,0 16.12,7.22 16.12,16.11 0,8.9 -7.22,16.12 -16.12,16.12 -0.01,0 -0.02,0 -0.03,0l0 0z"/>
   <polygon class="fil4" points="5390.92,4313.49 4875.21,4822.75 5390.92,5332.01 5506.95,5215.98 5116.95,4825.97 5510.17,4432.74 "/>
   <polygon class="fil4" points="6151.58,4313.49 6667.29,4822.75 6151.58,5332.01 6035.55,5215.98 6425.56,4825.97 6032.33,4432.74 "/>
   <circle class="fil4" cx="3222.98" cy="2709.15" r="64.42"/>
   <circle class="fil4" cx="3394.77" cy="2709.15" r="64.42"/>
   <circle class="fil4" cx="3566.57" cy="2709.15" r="64.42"/>
   <polygon class="fil3" points="3079.82,2838 8462.68,2838 8462.68,2816.52 3079.82,2816.52 "/>
   <path class="fil1" d="M9736.82 5790.37c0,456.48 -271.37,615.86 -606.12,615.86 -334.75,0 -606.12,-159.38 -606.12,-615.86 0,-456.48 606.12,-1037.19 606.12,-1037.19 0,0 606.12,580.71 606.12,1037.19z"/>
   <polygon class="fil2" points="9108.62,6336.4 9114.83,5954.37 9373.17,5481.74 9115.8,5894.44 9118.6,5722.66 9296.64,5380.73 9119.33,5677.21 9119.33,5677.21 9124.35,5368.26 9315.01,5096.03 9125.14,5319.68 9128.27,4753.18 9108.57,5503.12 9110.18,5472.19 8916.34,5175.48 9107.08,5531.58 9089.02,5876.62 9088.48,5867.45 8865.01,5555.21 9087.8,5899.81 9085.55,5942.96 9085.14,5943.61 9085.32,5947.15 9039.5,6822.56 9100.72,6822.56 9108.07,6370.4 9330.32,6026.64 "/>
   <path class="fil5" d="M2553.18 6818.54c-18.54,10.33 -38.25,18.77 -58.53,25.07 -36.36,9.93 -75.21,6.28 -111.93,14.76 -15.04,3.47 -31.4,10.73 -36.18,25.4 -3.51,10.76 0.31,22.38 3.96,33.1 40.57,118.96 65.03,245.28 129.74,353.04 27.14,45.22 60.99,86.31 100.13,121.6 14.71,13.26 31.38,26.23 51.08,28.31 1.83,0.18 3.66,0.28 5.48,0.28 28.64,0 51.88,-23.23 51.88,-51.88 0,-7.33 -1.57,-14.61 -4.58,-21.29 -5.8,-12.9 -16.58,-22.88 -23.54,-35.19 -7.51,-15.67 -11.97,-32.68 -13.02,-50.04 -6.4,-50.88 -12.55,-104.06 5.07,-152.22 11.83,-32.3 33.52,-59.83 51.59,-89.1 18.07,-29.27 33.08,-62.79 29.06,-96.95 -2.74,-23.31 -14.11,-44.64 -26.13,-64.81 -12.03,-20.2 -35.82,-74.5 -60,-81.24 -25.11,-7 -72.19,29.94 -94.08,41.16z"/>
   <path class="fil5" d="M3214.84 7229.47c0.03,1.08 0.06,2.2 0.06,3.3 0,10.4 -1.63,20.76 -4.81,30.66 -7.56,19.99 -26.34,33.69 -36.04,52.73 -13.5,26.49 -7.38,58.51 1.56,86.86 5.6,17.77 12.95,36.27 28,47.26 12.88,7.99 27.51,12.69 42.62,13.67 129.11,17.86 260.25,7.61 390.54,11.36 23.74,0.68 48.88,1.51 69.61,-10.1 20.72,-11.6 33.54,-40.77 19.44,-59.89 -12.66,-17.17 -37.69,-17.01 -58.99,-18.02 -55.46,-2.83 -108.36,-24.62 -149.71,-61.66 -8.13,-6.97 -15.24,-15.13 -20.98,-24.18 -4.42,-8.02 -8.12,-16.49 -10.98,-25.18 -18.25,-49.36 -40.03,-97.73 -64.97,-144.05 -7.01,-12.99 -14.94,-26.52 -27.96,-33.47 -9.59,-4.3 -19.94,-6.56 -30.4,-6.59 -32.48,-2.1 -116.56,-13.16 -141.67,12.09 -23.21,23.34 -4.81,95.58 -5.32,125.21z"/>
   <circle class="fil6" cx="3414.65" cy="4138.76" r="207.4"/>
   <path class="fil6" d="M3227.36 4310.02c-12.34,33.03 -33.26,64.05 -63.71,81.82l286.86 58.51c-5.93,-23.95 -8.97,-48.62 -8.97,-73.29 0,-18.29 1.67,-36.65 4.94,-54.61 1.78,-6.41 2.69,-13.04 2.69,-19.69 0,-3.97 -0.33,-7.96 -0.97,-11.87 -5.39,-20.82 -28.82,-30.83 -49.78,-35.61 -52.35,-11.94 -98.65,-18.34 -147.3,-41.46 -14.88,25.46 -12.8,66.85 -23.76,96.2z"/>
   <path class="fil5" d="M3161.25 4314.18c29.04,-13.13 60.61,-19.95 92.49,-19.95 35.85,0 71.21,8.6 103.03,25.06 36.78,19.38 67.23,48.64 97.14,77.5 27.58,26.6 57,57.07 58.96,95.33 0.95,18.54 -4.84,36.67 -7.76,55 -1.16,8.35 -1.75,16.86 -1.75,25.3 0,69.22 38.78,132.65 100.38,164.17 22.79,37.96 27.49,83.95 27.84,128.23 1.32,167.76 -51.6,337.58 -13.82,501.03 8.87,38.38 22.63,75.55 30.3,114.18 9.92,50.04 9.43,101.5 14.63,152.25 5.61,54.86 17.93,109.14 36.58,161.01 -12.49,19.85 -38.47,27.47 -61.87,25.86 -23.39,-1.61 -45.27,-11.76 -66.15,-22.45 -101.1,-51.73 -193.69,-119.95 -298.4,-163.91 -69.27,-29.09 -143.07,-47.21 -210.28,-80.81 -67.2,-33.59 -129.7,-86.91 -150.25,-159.18 -8.88,-31.24 -9.43,-64.17 -9.91,-96.65 -2.05,-136.82 -3.94,-275.13 25.84,-408.68 26.26,-117.78 76.88,-230.45 87.93,-350.61 3.59,-39.11 3.67,-80.99 25.52,-113.62 30.92,-46.11 97.61,-58.06 119.55,-109.06z"/>
   <path class="fil5" d="M3296.69 4141.69c12.22,-15.94 35.8,-18.11 55.32,-13.4 19.52,4.72 37.53,14.78 57.25,18.6 2.97,0.85 6.05,1.28 9.14,1.28 6.24,0 12.35,-1.75 17.65,-5.04 6.89,-6.78 11.02,-15.9 11.57,-25.55 4.48,-26.61 6.74,-53.83 6.74,-80.88 0,-14.53 -0.71,-29.07 -1.96,-43.54 -0.35,-2.1 -0.54,-4.25 -0.54,-6.39 0,-3.75 0.57,-7.48 1.69,-11.06 4.89,-11.76 19.78,-14.56 31.95,-18.33 38.71,-13.08 64.79,-49.43 64.79,-90.3 0,-2.43 -0.11,-4.86 -0.28,-7.28 -0.3,-10.13 -4.56,-19.75 -11.86,-26.79 -8.41,-6.85 -20.18,-7.27 -31.04,-7.36 -55.75,-0.45 -111.51,-0.43 -167.26,0.04 -20.64,0.18 -42.31,0.69 -60.2,10.97 -13.22,7.61 -23.06,19.85 -34.93,29.43 -30.97,24.99 -72.86,30.08 -110.53,42.88 -18.37,5.24 -35.09,15.22 -48.43,28.9 -12.53,14.32 -18.55,35.6 -10.68,52.92 4,7.19 8.56,14.17 13.5,20.77 22.22,35.54 7.42,81.63 10.74,123.41 4.15,52.17 81.35,136.8 133.71,149.14 84.51,19.94 35.68,-108.17 63.66,-142.42z"/>
   <path class="fil5" d="M3179.6 6429.07c5.34,38.1 12.18,76.32 10.35,114.74 -2.55,53.64 -21.9,105.32 -25.47,158.91 -2.67,40.02 3.5,80.47 -2.05,120.19 -3.56,25.44 -11.86,49.95 -16.99,75.12 -3.92,19.83 -5.93,40.16 -5.93,60.41 0,63.52 19.53,125.64 55.86,177.71 3.49,5.86 8.5,10.7 14.47,14.03 4.55,1.68 9.36,2.54 14.21,2.54 1.24,0 2.5,-0.06 3.74,-0.17 60.13,-1.15 120.67,-6.81 180.11,-16.4 4.42,-0.15 8.56,-1.98 11.63,-5.08 1.35,-2.05 2.21,-4.39 2.51,-6.83 11.06,-56.8 -14.14,-113.76 -20.55,-171.28 -6.85,-61.41 7.89,-122.95 22.52,-182.99 6.55,-29.47 14.98,-58.94 24.81,-87.52 7.06,-19.3 15.6,-38.08 21.73,-57.71 8.68,-30.8 14,-62.55 15.77,-94.51 4.25,-50.47 6.51,-101.05 6.76,-151.75 0.14,-6.32 0.29,-12.77 0.29,-19.15 0,-41.59 -4.12,-83.34 -12.2,-124.07 -13.44,-59.69 -40.97,-115.11 -68.26,-169.86 -14.58,3.48 -28.3,10 -40.21,19.1 -35.04,22.68 -71.96,43.16 -109.87,60.7 -25.53,11.86 -75.32,20.28 -91.52,44.99 -15.98,24.37 -5.67,74.09 -4.45,100.97 2.09,46.14 6.34,92.11 12.74,137.91z"/>
   <path class="fil3" d="M3179.6 6429.07c5.34,38.1 12.18,76.32 10.35,114.74 -2.55,53.64 -21.9,105.32 -25.47,158.91 -2.67,40.02 3.5,80.47 -2.05,120.19 -3.56,25.44 -11.86,49.95 -16.99,75.12 -3.92,19.83 -5.93,40.16 -5.93,60.41 0,63.52 19.53,125.64 55.86,177.71 3.49,5.86 8.5,10.7 14.47,14.03 4.55,1.68 9.36,2.54 14.21,2.54 1.24,0 2.5,-0.06 3.74,-0.17 60.13,-1.15 120.67,-6.81 180.11,-16.4 4.42,-0.15 8.56,-1.98 11.63,-5.08 1.35,-2.05 2.21,-4.39 2.51,-6.83 11.06,-56.8 -14.14,-113.76 -20.55,-171.28 -6.85,-61.41 7.89,-122.95 22.52,-182.99 6.55,-29.47 14.98,-58.94 24.81,-87.52 7.06,-19.3 15.6,-38.08 21.73,-57.71 8.68,-30.8 14,-62.55 15.77,-94.51 4.25,-50.47 6.51,-101.05 6.76,-151.75 0.14,-6.32 0.29,-12.77 0.29,-19.15 0,-41.59 -4.12,-83.34 -12.2,-124.07 -13.44,-59.69 -40.97,-115.11 -68.26,-169.86 -14.58,3.48 -28.3,10 -40.21,19.1 -35.04,22.68 -71.96,43.16 -109.87,60.7 -25.53,11.86 -75.32,20.28 -91.52,44.99 -15.98,24.37 -5.67,74.09 -4.45,100.97 2.09,46.14 6.34,92.11 12.74,137.91z"/>
   <path class="fil5" d="M2899.2 5615.46c-27.54,74.15 12.94,154.28 48.12,225.13 86.65,174.56 146.83,360.82 206.68,546.29 4.48,13.89 8.96,29.05 3.97,42.76 -4.31,9.73 -11.33,18.06 -20.19,23.96 -41.27,31.35 -93.82,42.51 -142.98,58.91 -47.45,15.81 -93.08,37.25 -135.56,63.57 -35.62,22.08 -69,47.56 -102.3,73l-106.03 80.97c-6.89,4.61 -12.9,10.44 -17.76,17.15 -10.22,16.04 -6.04,36.98 -0.94,55.32 13.45,48.43 30.91,96.09 51.93,141.69 3.44,10 10.04,18.66 18.8,24.65 16.55,8.89 36.79,-2.9 49.43,-16.8 12.63,-13.9 23.56,-31.2 41.38,-37.17 17.79,-5.96 37.37,1.26 55.96,-1.35 30.05,-4.22 50,-31.91 71.67,-53.16 88.51,-86.84 236.29,-80.54 333.65,-157.32 14.04,-12.53 29.05,-24.28 44.63,-34.84 16.46,-9.73 35.12,-15.07 52.2,-23.67 51.95,-26.15 84.6,-80.23 102.09,-135.69 17.5,-55.47 22.48,-114.01 35.05,-170.8 6.5,-29.35 15.06,-58.39 17.95,-88.32 0.69,-10.45 1.03,-21.02 1.03,-31.53 0,-17.33 -1.04,-34.77 -2.89,-51.99l-35.11 -434.59c-2.86,-35.38 -5.72,-70.81 -11.28,-105.87 -104.34,3.73 -208.6,7.92 -313,9.16 -83.08,0.98 -167.68,6.79 -246.5,-19.46z"/>
   <path class="fil5" d="M2860.84 5717.12c14.16,22.76 48.61,22.29 72.33,9.81 23.72,-12.48 42.15,-33.44 65.93,-45.82 31.95,-16.62 69.76,-16 105.77,-14.98 57,1.61 114.7,3.32 169.55,18.94 56.73,16.16 111.95,47.27 170.61,41.06 10.2,-1.07 21.36,-4 26.92,-12.63 2.95,-5.66 4.49,-11.95 4.49,-18.33 0,-0.66 -0.02,-1.32 -0.05,-1.97l1.92 -51.25c0.26,-2.01 0.4,-4.05 0.4,-6.08 0,-6.87 -1.53,-13.67 -4.48,-19.87 -4.92,-6.72 -11.68,-11.89 -19.44,-14.88 -83.49,-40.42 -178.7,-47.94 -271.4,-51.12 -47.13,-1.61 -94.27,-2.27 -141.43,-1.99 -40.02,0.24 -88.07,-5.55 -126.98,5.15 -52.21,14.35 -80.63,121.36 -54.14,163.96z"/>
   <path class="fil4" d="M3385.08 4375.02c-109.39,-0.97 -208.52,-73.18 -317.9,-74.93 -1.88,-0.12 -3.8,-0.2 -5.69,-0.2 -11.32,0 -22.54,2.34 -32.91,6.85 -15.24,7.68 -25.27,22.53 -36.84,35.07 -32.35,35.02 -79.18,53.72 -112.41,87.9 -31.15,32.06 -48.48,79.81 -36.18,122.79 12.3,42.97 58.72,75.93 102.21,65.6 17.5,-56.67 53.71,-105.85 102.63,-139.42 25.43,-16.28 52.38,-30.48 80.21,-42.14 49.16,-22.28 104.14,-44.97 155.46,-28.28 18.91,7.14 36.82,16.92 53.04,28.94l85.57 57.48c-9.99,-39.32 -18.95,-83.42 -37.19,-119.66z"/>
   <path class="fil4" d="M2932.76 4580.08c-14.53,18.13 6.4,44.38 3.2,67.39 -2.13,15.28 -14.71,26.95 -19.95,41.46 -5.42,15.04 -2.54,31.69 -4.6,47.54 -2.03,11.49 -5.14,22.87 -9.13,33.85 -9.14,32.78 -15.67,66.56 -19.24,100.43l-19.15 142.98c-3.29,21.46 -5.4,43.29 -6.06,64.98 0.24,3.77 0.36,7.65 0.36,11.47 0,12.44 -1.21,24.9 -3.57,37.1 -4.24,15.62 -13.63,29.29 -19.95,44.2 -6.31,14.91 -9.24,32.94 -0.71,46.7 -28.57,23.8 -37.07,70.53 -17.09,101.89 3.8,4.87 6.78,10.37 8.81,16.21 0.24,1.84 0.37,3.71 0.37,5.57 0,6.35 -1.46,12.64 -4.25,18.34l-19.36 51.58c-4.96,13.21 -6.52,33.31 7.25,36.33 -11.39,11.85 -20.31,25.89 -26.13,41.28 -1.98,5.41 -3,11.14 -3,16.9 0,10.71 3.5,21.13 9.96,29.66 4.8,4.22 8.91,9.2 12.13,14.72 0.75,3.05 1.13,6.21 1.13,9.36 0,4.73 -0.86,9.44 -2.54,13.86 -1.77,6.91 -2.68,14.06 -2.68,21.21 0,16.14 4.6,31.97 13.23,45.6 11.1,16.69 29.84,26.73 49.89,26.73 3.47,0 6.95,-0.31 10.37,-0.91 38.73,-8.73 73.53,-22.52 112.58,-15.36 84.07,15.43 168.42,30.93 249.86,56.93 92.94,29.67 182.93,73.18 280.06,82.32 1.79,0.36 3.62,0.55 5.45,0.55 4.65,0 9.23,-1.19 13.28,-3.46 4.95,-4.69 8.04,-11.02 8.67,-17.81 10,-46.92 20.01,-93.84 30.01,-140.76 12.03,-51.77 21.4,-105 27.59,-157.7 3.42,-34.23 4.39,-68.64 5.37,-103.02l7.73 -273.67c0.71,-8.09 1.11,-16.3 1.11,-24.44 0,-32.22 -5.74,-64.3 -16.86,-94.5l-44.5 -142.08c-25.4,-81.08 -83.66,-152.98 -104.4,-235.37 -13.13,-52.14 -22.83,-108.11 -58.04,-148.75 -50.2,-57.94 -137.04,-66.95 -213.05,-56.99 -34.34,4.5 -68.97,12.26 -98.68,30.07 -34.34,20.6 -59.65,53.03 -84.12,84.73 -20.18,26.13 -40.71,47.13 -61.35,72.88z"/>
   <path class="fil6" d="M3110.24 5385c6.26,27.01 19.41,51.91 27.47,78.43 13.49,44.45 12.34,92.31 25.8,136.76 5.65,18.66 13.84,36.57 17.9,55.64 9.45,44.45 -4.35,90.45 -21.5,132.54 -17.15,42.09 -38.04,83.59 -43.6,128.7 -3.92,31.77 1.71,67.64 26.2,88.26 25.42,21.4 62.36,19.95 95.48,17.11 11.87,-0.33 23.64,-2.78 34.65,-7.22 25.33,-11.98 35.99,-41.94 41.91,-69.32 19.84,-91.76 14.17,-186.87 8.41,-280.57l-15.08 -245.06c-2.9,-47.17 -6.01,-95.33 -20.55,-140.63 -5.29,-16.47 -14.5,-49.77 -29.55,-60.29 -14.91,-10.43 -57.48,-10.89 -75.94,-11.76 -86.6,-4.07 -85.63,116.8 -71.6,177.41z"/>
   <path class="fil5" d="M3206.19 4480.22c-17.69,-9.26 -39.97,-5.26 -57.06,5.05 -16.49,11.3 -30.98,25.36 -42.75,41.5 -38.22,46.65 -78.67,100.17 -73.01,160.21 2.13,22.51 10.75,43.82 16.59,65.66 25.62,95.77 -2.71,197.06 0.54,296.15 1.88,57.25 14.34,113.57 26.75,169.5 2.53,11.41 6.59,24.63 17.63,28.47 8.29,2.88 17.25,-0.83 25.46,-3.95 22.49,-8.31 46.39,-12.59 70.39,-12.59 41.23,0 81.55,12.59 115.46,36.02 20.51,-10.94 12.83,-45.54 8.23,-68.33 -13.66,-67.7 4.88,-137.54 27.4,-202.82 22.52,-65.29 49.47,-130.5 53.2,-199.46 4.23,-78.14 -21.68,-154.41 -47.24,-228.36 -5.58,-16.15 -11.68,-33.07 -24.62,-44.23 -11.05,-8.24 -23.78,-14.06 -37.24,-17.03 -27.16,-8.02 -54.65,-12.65 -79.73,-25.79z"/>
  </g>
 </g>
</svg>
