<svg width="1360" height="706" viewBox="0 0 1360 706" fill="none" xmlns="http://www.w3.org/2000/svg">
<path fill-rule="evenodd" clip-rule="evenodd" d="M1360 0H0V680.749C18.8823 671.456 63.9237 649.456 104.226 640.648C201.46 619.399 292.054 650.162 367.596 675.814C387.4 682.538 406.169 688.912 423.753 693.905C508.409 717.945 589.144 681.73 671.769 639.276C737.868 605.313 803.853 609.864 860.476 639.512C862.432 640.537 864.383 641.559 866.329 642.58C920.713 671.09 971.436 697.681 1034.1 704.205C1107.84 711.883 1175.79 675.312 1229.81 646.232C1263.9 627.882 1292.45 612.515 1313.41 613.134C1323.86 612.762 1347.14 617.549 1360 626.858V0Z" fill="url(#paint0_linear)"/>
<defs>
<linearGradient id="paint0_linear" x1="1360" y1="419.987" x2="7.60513e-06" y2="419.988" gradientUnits="userSpaceOnUse">
<stop stop-color="#9B5CE3"/>
<stop offset="1" stop-color="#2B077E"/>
</linearGradient>
</defs>
</svg>
