<svg width="47" height="42" viewBox="0 0 47 42" fill="none" xmlns="http://www.w3.org/2000/svg">
<path fill-rule="evenodd" clip-rule="evenodd" d="M4 0C1.79086 0 0 1.79086 0 4V38C0 40.2091 1.79086 42 4 42H43C45.2091 42 47 40.2091 47 38V4C47 1.79086 45.2091 0 43 0H4ZM13 17C11.8954 17 11 17.8954 11 19V38C11 39.1046 11.8954 40 13 40H19C20.1046 40 21 39.1046 21 38V19C21 17.8954 20.1046 17 19 17H13ZM33 16H37C38.1046 16 39 15.1046 39 14V9C39 7.89543 38.1046 7 37 7H18C16.8954 7 16 7.89543 16 9V14C16 15.1046 16.8954 16 18 16H23V26V30.8859C23 31.5785 23.3584 32.2218 23.9473 32.5864L31.4216 37.2134C32.2108 37.7019 33.2026 37.0132 33.0206 36.103C33.0069 36.0345 33 35.9648 33 35.8949V16Z" fill="white"/>
</svg>
